<svg width="156" height="77" viewBox="0 0 156 77" fill="none" xmlns="http://www.w3.org/2000/svg">
<g filter="url(#filter0_d_1_22)">
<path d="M49.0312 35.36C47.4112 35.36 45.9012 35.1 44.5012 34.58C43.1212 34.04 41.9212 33.28 40.9012 32.3C39.8812 31.32 39.0812 30.17 38.5012 28.85C37.9412 27.53 37.6612 26.08 37.6612 24.5C37.6612 22.92 37.9412 21.47 38.5012 20.15C39.0812 18.83 39.8812 17.68 40.9012 16.7C41.9412 15.72 43.1512 14.97 44.5312 14.45C45.9112 13.91 47.4212 13.64 49.0612 13.64C50.8812 13.64 52.5212 13.96 53.9812 14.6C55.4612 15.22 56.7012 16.14 57.7012 17.36L54.5812 20.24C53.8612 19.42 53.0612 18.81 52.1812 18.41C51.3012 17.99 50.3412 17.78 49.3012 17.78C48.3212 17.78 47.4212 17.94 46.6012 18.26C45.7812 18.58 45.0712 19.04 44.4712 19.64C43.8712 20.24 43.4012 20.95 43.0612 21.77C42.7412 22.59 42.5812 23.5 42.5812 24.5C42.5812 25.5 42.7412 26.41 43.0612 27.23C43.4012 28.05 43.8712 28.76 44.4712 29.36C45.0712 29.96 45.7812 30.42 46.6012 30.74C47.4212 31.06 48.3212 31.22 49.3012 31.22C50.3412 31.22 51.3012 31.02 52.1812 30.62C53.0612 30.2 53.8612 29.57 54.5812 28.73L57.7012 31.61C56.7012 32.83 55.4612 33.76 53.9812 34.4C52.5212 35.04 50.8712 35.36 49.0312 35.36ZM67.766 35.36C66.086 35.36 64.476 35.14 62.936 34.7C61.396 34.24 60.156 33.65 59.216 32.93L60.866 29.27C61.766 29.91 62.826 30.44 64.046 30.86C65.286 31.26 66.536 31.46 67.796 31.46C68.756 31.46 69.526 31.37 70.106 31.19C70.706 30.99 71.146 30.72 71.426 30.38C71.706 30.04 71.846 29.65 71.846 29.21C71.846 28.65 71.626 28.21 71.186 27.89C70.746 27.55 70.166 27.28 69.446 27.08C68.726 26.86 67.926 26.66 67.046 26.48C66.186 26.28 65.316 26.04 64.436 25.76C63.576 25.48 62.786 25.12 62.066 24.68C61.346 24.24 60.756 23.66 60.296 22.94C59.856 22.22 59.636 21.3 59.636 20.18C59.636 18.98 59.956 17.89 60.596 16.91C61.256 15.91 62.236 15.12 63.536 14.54C64.856 13.94 66.506 13.64 68.486 13.64C69.806 13.64 71.106 13.8 72.386 14.12C73.666 14.42 74.796 14.88 75.776 15.5L74.276 19.19C73.296 18.63 72.316 18.22 71.336 17.96C70.356 17.68 69.396 17.54 68.456 17.54C67.516 17.54 66.746 17.65 66.146 17.87C65.546 18.09 65.116 18.38 64.856 18.74C64.596 19.08 64.466 19.48 64.466 19.94C64.466 20.48 64.686 20.92 65.126 21.26C65.566 21.58 66.146 21.84 66.866 22.04C67.586 22.24 68.376 22.44 69.236 22.64C70.116 22.84 70.986 23.07 71.846 23.33C72.726 23.59 73.526 23.94 74.246 24.38C74.966 24.82 75.546 25.4 75.986 26.12C76.446 26.84 76.676 27.75 76.676 28.85C76.676 30.03 76.346 31.11 75.686 32.09C75.026 33.07 74.036 33.86 72.716 34.46C71.416 35.06 69.766 35.36 67.766 35.36ZM90.0468 35.36C88.4268 35.36 86.9168 35.1 85.5168 34.58C84.1368 34.04 82.9368 33.28 81.9168 32.3C80.8968 31.32 80.0968 30.17 79.5168 28.85C78.9568 27.53 78.6768 26.08 78.6768 24.5C78.6768 22.92 78.9568 21.47 79.5168 20.15C80.0968 18.83 80.8968 17.68 81.9168 16.7C82.9568 15.72 84.1668 14.97 85.5468 14.45C86.9268 13.91 88.4368 13.64 90.0768 13.64C91.8968 13.64 93.5368 13.96 94.9968 14.6C96.4768 15.22 97.7168 16.14 98.7168 17.36L95.5968 20.24C94.8768 19.42 94.0768 18.81 93.1968 18.41C92.3168 17.99 91.3568 17.78 90.3168 17.78C89.3368 17.78 88.4368 17.94 87.6168 18.26C86.7968 18.58 86.0868 19.04 85.4868 19.64C84.8868 20.24 84.4168 20.95 84.0768 21.77C83.7568 22.59 83.5968 23.5 83.5968 24.5C83.5968 25.5 83.7568 26.41 84.0768 27.23C84.4168 28.05 84.8868 28.76 85.4868 29.36C86.0868 29.96 86.7968 30.42 87.6168 30.74C88.4368 31.06 89.3368 31.22 90.3168 31.22C91.3568 31.22 92.3168 31.02 93.1968 30.62C94.0768 30.2 94.8768 29.57 95.5968 28.73L98.7168 31.61C97.7168 32.83 96.4768 33.76 94.9968 34.4C93.5368 35.04 91.8868 35.36 90.0468 35.36Z" fill="white"/>
<path d="M11.3923 64.15C9.97562 64.15 8.72562 63.8583 7.64229 63.275C6.57562 62.6917 5.74229 61.8917 5.14229 60.875C4.55895 59.8583 4.26729 58.6917 4.26729 57.375C4.26729 56.0583 4.55062 54.8917 5.11729 53.875C5.70062 52.8583 6.49229 52.0667 7.49229 51.5C8.50895 50.9167 9.65062 50.625 10.9173 50.625C12.2006 50.625 13.334 50.9083 14.3173 51.475C15.3006 52.0417 16.0673 52.8417 16.6173 53.875C17.184 54.8917 17.4673 56.0833 17.4673 57.45C17.4673 57.55 17.459 57.6667 17.4423 57.8C17.4423 57.9333 17.434 58.0583 17.4173 58.175H6.14229V56.45H16.1673L15.1923 57.05C15.209 56.2 15.034 55.4417 14.6673 54.775C14.3006 54.1083 13.7923 53.5917 13.1423 53.225C12.509 52.8417 11.7673 52.65 10.9173 52.65C10.084 52.65 9.34229 52.8417 8.69229 53.225C8.04229 53.5917 7.53395 54.1167 7.16729 54.8C6.80062 55.4667 6.61729 56.2333 6.61729 57.1V57.5C6.61729 58.3833 6.81729 59.175 7.21729 59.875C7.63395 60.5583 8.20895 61.0917 8.94229 61.475C9.67562 61.8583 10.5173 62.05 11.4673 62.05C12.2506 62.05 12.959 61.9167 13.5923 61.65C14.2423 61.3833 14.809 60.9833 15.2923 60.45L16.6173 62C16.0173 62.7 15.2673 63.2333 14.3673 63.6C13.484 63.9667 12.4923 64.15 11.3923 64.15ZM27.8749 50.625C28.9582 50.625 29.9082 50.8333 30.7249 51.25C31.5582 51.6667 32.2082 52.3 32.6749 53.15C33.1416 54 33.3749 55.075 33.3749 56.375V64H30.9749V56.65C30.9749 55.3667 30.6582 54.4 30.0249 53.75C29.4082 53.1 28.5332 52.775 27.3999 52.775C26.5499 52.775 25.8082 52.9417 25.1749 53.275C24.5416 53.6083 24.0499 54.1 23.6999 54.75C23.3666 55.4 23.1999 56.2083 23.1999 57.175V64H20.7999V50.75H23.0999V54.325L22.7249 53.375C23.1582 52.5083 23.8249 51.8333 24.7249 51.35C25.6249 50.8667 26.6749 50.625 27.8749 50.625ZM42.3665 64.15C41.0332 64.15 39.9998 63.7917 39.2665 63.075C38.5332 62.3583 38.1665 61.3333 38.1665 60V47.85H40.5665V59.9C40.5665 60.6167 40.7415 61.1667 41.0915 61.55C41.4582 61.9333 41.9748 62.125 42.6415 62.125C43.3915 62.125 44.0165 61.9167 44.5165 61.5L45.2665 63.225C44.8998 63.5417 44.4582 63.775 43.9415 63.925C43.4415 64.075 42.9165 64.15 42.3665 64.15ZM35.9165 52.725V50.75H44.3665V52.725H35.9165ZM53.6286 64.15C52.2119 64.15 50.9619 63.8583 49.8786 63.275C48.8119 62.6917 47.9786 61.8917 47.3786 60.875C46.7953 59.8583 46.5036 58.6917 46.5036 57.375C46.5036 56.0583 46.7869 54.8917 47.3536 53.875C47.9369 52.8583 48.7286 52.0667 49.7286 51.5C50.7453 50.9167 51.8869 50.625 53.1536 50.625C54.4369 50.625 55.5703 50.9083 56.5536 51.475C57.5369 52.0417 58.3036 52.8417 58.8536 53.875C59.4203 54.8917 59.7036 56.0833 59.7036 57.45C59.7036 57.55 59.6953 57.6667 59.6786 57.8C59.6786 57.9333 59.6703 58.0583 59.6536 58.175H48.3786V56.45H58.4036L57.4286 57.05C57.4453 56.2 57.2703 55.4417 56.9036 54.775C56.5369 54.1083 56.0286 53.5917 55.3786 53.225C54.7453 52.8417 54.0036 52.65 53.1536 52.65C52.3203 52.65 51.5786 52.8417 50.9286 53.225C50.2786 53.5917 49.7703 54.1167 49.4036 54.8C49.0369 55.4667 48.8536 56.2333 48.8536 57.1V57.5C48.8536 58.3833 49.0536 59.175 49.4536 59.875C49.8703 60.5583 50.4453 61.0917 51.1786 61.475C51.9119 61.8583 52.7536 62.05 53.7036 62.05C54.4869 62.05 55.1953 61.9167 55.8286 61.65C56.4786 61.3833 57.0453 60.9833 57.5286 60.45L58.8536 62C58.2536 62.7 57.5036 63.2333 56.6036 63.6C55.7203 63.9667 54.7286 64.15 53.6286 64.15ZM63.0362 64V50.75H65.3362V54.35L65.1112 53.45C65.4779 52.5333 66.0946 51.8333 66.9612 51.35C67.8279 50.8667 68.8946 50.625 70.1612 50.625V52.95C70.0612 52.9333 69.9612 52.925 69.8612 52.925C69.7779 52.925 69.6946 52.925 69.6112 52.925C68.3279 52.925 67.3112 53.3083 66.5612 54.075C65.8112 54.8417 65.4362 55.95 65.4362 57.4V64H63.0362ZM80.1442 64.15C79.0442 64.15 78.0359 63.9 77.1192 63.4C76.2192 62.8833 75.4942 62.125 74.9442 61.125C74.4109 60.125 74.1442 58.875 74.1442 57.375C74.1442 55.875 74.4026 54.625 74.9192 53.625C75.4526 52.625 76.1692 51.875 77.0692 51.375C77.9859 50.875 79.0109 50.625 80.1442 50.625C81.4442 50.625 82.5942 50.9083 83.5942 51.475C84.5942 52.0417 85.3859 52.8333 85.9692 53.85C86.5526 54.85 86.8442 56.025 86.8442 57.375C86.8442 58.725 86.5526 59.9083 85.9692 60.925C85.3859 61.9417 84.5942 62.7333 83.5942 63.3C82.5942 63.8667 81.4442 64.15 80.1442 64.15ZM73.1192 68.85V50.75H75.4192V54.325L75.2692 57.4L75.5192 60.475V68.85H73.1192ZM79.9442 62.05C80.7942 62.05 81.5526 61.8583 82.2192 61.475C82.9026 61.0917 83.4359 60.55 83.8192 59.85C84.2192 59.1333 84.4192 58.3083 84.4192 57.375C84.4192 56.425 84.2192 55.6083 83.8192 54.925C83.4359 54.225 82.9026 53.6833 82.2192 53.3C81.5526 52.9167 80.7942 52.725 79.9442 52.725C79.1109 52.725 78.3526 52.9167 77.6692 53.3C77.0026 53.6833 76.4692 54.225 76.0692 54.925C75.6859 55.6083 75.4942 56.425 75.4942 57.375C75.4942 58.3083 75.6859 59.1333 76.0692 59.85C76.4692 60.55 77.0026 61.0917 77.6692 61.475C78.3526 61.8583 79.1109 62.05 79.9442 62.05ZM90.1603 64V50.75H92.4603V54.35L92.2353 53.45C92.6019 52.5333 93.2186 51.8333 94.0853 51.35C94.9519 50.8667 96.0186 50.625 97.2853 50.625V52.95C97.1853 52.9333 97.0853 52.925 96.9853 52.925C96.9019 52.925 96.8186 52.925 96.7353 52.925C95.4519 52.925 94.4353 53.3083 93.6853 54.075C92.9353 54.8417 92.5603 55.95 92.5603 57.4V64H90.1603ZM100.243 64V50.75H102.643V64H100.243ZM101.443 48.2C100.977 48.2 100.585 48.05 100.268 47.75C99.9683 47.45 99.8183 47.0833 99.8183 46.65C99.8183 46.2 99.9683 45.825 100.268 45.525C100.585 45.225 100.977 45.075 101.443 45.075C101.91 45.075 102.293 45.225 102.593 45.525C102.91 45.8083 103.068 46.1667 103.068 46.6C103.068 47.05 102.918 47.4333 102.618 47.75C102.318 48.05 101.927 48.2 101.443 48.2ZM111.026 64.15C109.926 64.15 108.876 64 107.876 63.7C106.892 63.4 106.117 63.0333 105.551 62.6L106.551 60.7C107.117 61.0833 107.817 61.4083 108.651 61.675C109.484 61.9417 110.334 62.075 111.201 62.075C112.317 62.075 113.117 61.9167 113.601 61.6C114.101 61.2833 114.351 60.8417 114.351 60.275C114.351 59.8583 114.201 59.5333 113.901 59.3C113.601 59.0667 113.201 58.8917 112.701 58.775C112.217 58.6583 111.676 58.5583 111.076 58.475C110.476 58.375 109.876 58.2583 109.276 58.125C108.676 57.975 108.126 57.775 107.626 57.525C107.126 57.2583 106.726 56.9 106.426 56.45C106.126 55.9833 105.976 55.3667 105.976 54.6C105.976 53.8 106.201 53.1 106.651 52.5C107.101 51.9 107.734 51.4417 108.551 51.125C109.384 50.7917 110.367 50.625 111.501 50.625C112.367 50.625 113.242 50.7333 114.126 50.95C115.026 51.15 115.759 51.4417 116.326 51.825L115.301 53.725C114.701 53.325 114.076 53.05 113.426 52.9C112.776 52.75 112.126 52.675 111.476 52.675C110.426 52.675 109.642 52.85 109.126 53.2C108.609 53.5333 108.351 53.9667 108.351 54.5C108.351 54.95 108.501 55.3 108.801 55.55C109.117 55.7833 109.517 55.9667 110.001 56.1C110.501 56.2333 111.051 56.35 111.651 56.45C112.251 56.5333 112.851 56.65 113.451 56.8C114.051 56.9333 114.592 57.125 115.076 57.375C115.576 57.625 115.976 57.975 116.276 58.425C116.592 58.875 116.751 59.475 116.751 60.225C116.751 61.025 116.517 61.7167 116.051 62.3C115.584 62.8833 114.926 63.3417 114.076 63.675C113.226 63.9917 112.209 64.15 111.026 64.15ZM125.65 64.15C124.233 64.15 122.983 63.8583 121.9 63.275C120.833 62.6917 120 61.8917 119.4 60.875C118.817 59.8583 118.525 58.6917 118.525 57.375C118.525 56.0583 118.808 54.8917 119.375 53.875C119.958 52.8583 120.75 52.0667 121.75 51.5C122.767 50.9167 123.908 50.625 125.175 50.625C126.458 50.625 127.592 50.9083 128.575 51.475C129.558 52.0417 130.325 52.8417 130.875 53.875C131.442 54.8917 131.725 56.0833 131.725 57.45C131.725 57.55 131.717 57.6667 131.7 57.8C131.7 57.9333 131.692 58.0583 131.675 58.175H120.4V56.45H130.425L129.45 57.05C129.467 56.2 129.292 55.4417 128.925 54.775C128.558 54.1083 128.05 53.5917 127.4 53.225C126.767 52.8417 126.025 52.65 125.175 52.65C124.342 52.65 123.6 52.8417 122.95 53.225C122.3 53.5917 121.792 54.1167 121.425 54.8C121.058 55.4667 120.875 56.2333 120.875 57.1V57.5C120.875 58.3833 121.075 59.175 121.475 59.875C121.892 60.5583 122.467 61.0917 123.2 61.475C123.933 61.8583 124.775 62.05 125.725 62.05C126.508 62.05 127.217 61.9167 127.85 61.65C128.5 61.3833 129.067 60.9833 129.55 60.45L130.875 62C130.275 62.7 129.525 63.2333 128.625 63.6C127.742 63.9667 126.75 64.15 125.65 64.15Z" fill="white"/>
</g>
<defs>
<filter id="filter0_d_1_22" x="0.267273" y="0" width="159.733" height="76.85" filterUnits="userSpaceOnUse" color-interpolation-filters="sRGB">
<feFlood flood-opacity="0" result="BackgroundImageFix"/>
<feColorMatrix in="SourceAlpha" type="matrix" values="0 0 0 0 0 0 0 0 0 0 0 0 0 0 0 0 0 0 127 0" result="hardAlpha"/>
<feOffset dy="4"/>
<feGaussianBlur stdDeviation="2"/>
<feComposite in2="hardAlpha" operator="out"/>
<feColorMatrix type="matrix" values="0 0 0 0 0 0 0 0 0 0 0 0 0 0 0 0 0 0 0.25 0"/>
<feBlend mode="normal" in2="BackgroundImageFix" result="effect1_dropShadow_1_22"/>
<feBlend mode="normal" in="SourceGraphic" in2="effect1_dropShadow_1_22" result="shape"/>
</filter>
</defs>
</svg>
